<svg width="65" height="66" viewBox="0 0 65 66" fill="none" xmlns="http://www.w3.org/2000/svg">
<path d="M45.7998 58.7408C42.496 58.7408 39.3562 58.0492 36.506 56.814L29.6482 63.6718H51.9636C53.3246 63.6718 54.4291 62.5673 54.4291 61.2063V57.0778C51.7565 58.1404 48.8509 58.7408 45.7998 58.7408Z" fill="#009EE1"/>
<path d="M51.9639 0.80127H2.65351C1.29254 0.80127 0.187988 1.90582 0.187988 3.26679V61.2065C0.187988 62.5674 1.29254 63.672 2.65351 63.672H5.24353L24.3045 44.6123C23.0692 41.7622 22.3777 38.6223 22.3777 35.3185C22.3777 22.3832 32.8647 11.8961 45.8001 11.8961C48.8512 11.8961 51.7568 12.4965 54.4294 13.5591V3.26679C54.4294 1.90582 53.3248 0.80127 51.9639 0.80127ZM19.9121 24.2237H5.11902V19.2927H19.9121V24.2237ZM28.5414 14.3616H5.11902V9.43058H28.5414V14.3616Z" fill="#009EE1"/>
<path d="M45.7998 16.8271C35.5877 16.8271 27.3084 25.1064 27.3084 35.3185C27.3084 39.0871 28.4426 42.5869 30.378 45.511L16.0645 59.8246L21.2938 65.0539L35.6074 50.7403C38.5315 52.6758 42.0313 53.8099 45.7998 53.8099C56.012 53.8099 64.2912 45.5307 64.2912 35.3185C64.2912 25.1064 56.012 16.8271 45.7998 16.8271ZM39.636 42.7151H34.705V32.853H39.636V42.7151ZM48.2654 42.7151H43.3343V29.1547H48.2654V42.7151ZM56.8947 42.7151H51.9636V25.4565H56.8947V42.7151Z" fill="#8665CB"/>
</svg>
