<svg width="68" height="72" viewBox="0 0 68 72" fill="none" xmlns="http://www.w3.org/2000/svg">
<path d="M47.5202 36.041L47.253 39.0279C47.2327 39.2659 47.1399 39.492 46.9872 39.6757C46.8346 39.8594 46.6293 39.9919 46.399 40.0555C45.2536 40.3758 44.1548 40.8392 43.1267 41.437C42.9192 41.5581 42.6794 41.6123 42.4399 41.5923C42.2005 41.5723 41.9731 41.479 41.7885 41.3251L39.4685 39.3818L35.8696 42.9807L37.8106 45.3122C37.9645 45.4967 38.0578 45.7241 38.0778 45.9636C38.0978 46.203 38.0436 46.4428 37.9225 46.6503C37.3303 47.6772 36.8754 48.7687 36.5592 49.9112C36.4957 50.1415 36.3632 50.3468 36.1795 50.4994C35.9957 50.6521 35.7697 50.7449 35.5317 50.7652L32.5288 51.0415V56.1247L35.5225 56.401C35.758 56.4226 35.9815 56.5152 36.1633 56.6664C36.3451 56.8177 36.4768 57.0205 36.541 57.2482C36.8606 58.3904 37.3268 59.4925 37.9225 60.5182C38.0416 60.7247 38.0946 60.9627 38.0746 61.2002C38.0546 61.4378 37.9625 61.6635 37.8106 61.8472L35.8696 64.1878L39.4685 67.7867L41.7977 65.8343C41.9814 65.6824 42.2071 65.5903 42.4447 65.5703C42.6822 65.5503 42.9202 65.6033 43.1267 65.7224C44.1528 66.3151 45.2571 66.7778 46.399 67.0948C46.6262 67.1593 46.8286 67.2912 46.9794 67.473C47.1302 67.6548 47.2224 67.878 47.2439 68.1132L47.5202 71.1161H52.6125L52.8888 68.1041C52.9098 67.8697 53.001 67.6471 53.1505 67.4654C53.3 67.2837 53.5009 67.1514 53.7268 67.0856C54.8584 66.7622 55.947 66.3011 56.9626 65.7064C57.1692 65.5841 57.4085 65.5283 57.6479 65.5467C57.8873 65.5651 58.1153 65.6567 58.3008 65.8092L60.6642 67.7867L64.2631 64.1878L62.3221 61.8472C62.1687 61.6645 62.075 61.4392 62.0533 61.2017C62.0317 60.9641 62.0832 60.7256 62.201 60.5182C62.7929 59.4926 63.257 58.3984 63.5734 57.2573C63.636 57.028 63.767 56.8232 63.949 56.6702C64.1309 56.5172 64.3552 56.4233 64.5919 56.401L67.6039 56.1247V51.0415L64.5736 50.7652C64.3372 50.7431 64.1132 50.6496 63.9312 50.497C63.7493 50.3444 63.6181 50.1401 63.5552 49.9112C63.2367 48.7789 62.7727 47.693 62.1828 46.6754C62.065 46.468 62.0134 46.2295 62.0351 45.992C62.0567 45.7544 62.1505 45.5291 62.3038 45.3464L64.2631 42.9807L60.6642 39.3818L58.3259 41.332C58.1413 41.4858 57.9139 41.5791 57.6745 41.5991C57.435 41.6192 57.1952 41.5649 56.9877 41.4439C55.9648 40.8428 54.8677 40.3718 53.7268 40.0463C53.4992 39.9822 53.2964 39.8505 53.1451 39.6687C52.9939 39.4868 52.9013 39.2634 52.8797 39.0279L52.6125 36.041H47.5202ZM50.0663 45.3966C54.5725 45.3966 58.2482 49.0724 58.2482 53.5785C58.2482 58.0847 54.5725 61.7696 50.0663 61.7696C45.5602 61.7696 41.8844 58.0847 41.8844 53.5785C41.8844 49.0724 45.5602 45.3967 50.0663 45.3966ZM50.0663 47.7373C46.8239 47.7373 44.2228 50.3361 44.2228 53.5785C44.2228 56.821 46.8239 59.4312 50.0663 59.4312C53.3088 59.4312 55.9099 56.821 55.9099 53.5785C55.9099 50.3361 53.3088 47.7373 50.0663 47.7373Z" fill="#8665CB"/>
<path d="M0.956543 31.0903C0.983453 31.1066 1.00933 31.1245 1.03647 31.1406C2.38035 31.9349 4.17573 32.5882 6.35938 33.1341C10.7267 34.2259 16.6369 34.8764 23.173 34.8764C29.7092 34.8764 35.6262 34.2259 39.9935 33.1341C42.1772 32.5882 43.9749 31.9349 45.3187 31.1406C45.3417 31.127 45.3644 31.1132 45.3872 31.0995V34.4152C45.3372 34.5289 45.3056 34.6499 45.2936 34.7737L44.983 38.1305C44.2135 38.3897 43.47 38.7009 42.7475 39.0713L40.142 36.9042C39.9182 36.7185 39.6332 36.6229 39.3427 36.636C39.0523 36.6491 38.7771 36.77 38.5709 36.975L33.4603 42.0833C33.2543 42.2886 33.1322 42.5633 33.1179 42.8538C33.1035 43.1443 33.1979 43.4297 33.3827 43.6543L35.5589 46.269C35.1936 46.9877 34.8805 47.7308 34.6249 48.4954L31.2522 48.806C30.9614 48.8328 30.6913 48.9674 30.4948 49.1834C30.2983 49.3993 30.1897 49.6809 30.1903 49.9729V54.4828C27.9805 54.6586 25.622 54.7523 23.173 54.7523C16.7949 54.7523 11.0169 54.1024 6.92113 53.0785C4.87323 52.5665 3.24883 51.9497 2.22619 51.3453C1.20354 50.7408 0.956543 50.2509 0.956543 50.0756V31.0903Z" fill="#009EE1"/>
<path d="M0.956543 8.88281C0.983453 8.89907 1.00933 8.91701 1.03647 8.93305C2.38035 9.72737 4.17573 10.3715 6.35938 10.9174C10.7267 12.0093 16.6369 12.6621 23.173 12.6621C29.7092 12.6621 35.6262 12.0093 39.9935 10.9174C42.1772 10.3715 43.9749 9.72737 45.3187 8.93305C45.3417 8.91948 45.3644 8.90567 45.3872 8.89195V27.859C45.3872 28.0342 45.1517 28.5242 44.129 29.1286C43.1064 29.7331 41.4728 30.3521 39.4249 30.8641C35.3291 31.8881 29.5512 32.5379 23.173 32.5379C16.7949 32.5379 11.0169 31.8881 6.92113 30.8641C4.87323 30.3521 3.24883 29.7331 2.22619 29.1286C1.20354 28.5242 0.956543 28.0342 0.956543 27.859V8.88281Z" fill="#009EE1"/>
<path d="M23.173 0.96582C29.5512 0.96582 35.3291 1.62483 39.4249 2.64878C41.4728 3.16076 43.1064 3.77068 44.129 4.37513C45.1517 4.97959 45.3872 5.4695 45.3872 5.64478C45.3872 5.82006 45.1517 6.30997 44.129 6.91442C43.1064 7.51887 41.4728 8.13565 39.4249 8.64762C35.3291 9.67158 29.5512 10.3215 23.173 10.3215C16.7949 10.3215 11.0169 9.67158 6.92113 8.64762C4.87323 8.13565 3.24883 7.51887 2.22619 6.91442C1.20354 6.30997 0.956543 5.82006 0.956543 5.64478C0.956543 5.4695 1.20354 4.97959 2.22619 4.37513C3.24883 3.77068 4.87323 3.16076 6.92113 2.64878C11.0169 1.62483 16.7949 0.96582 23.173 0.96582Z" fill="#009EE1"/>
</svg>
