<svg width="68" height="66" viewBox="0 0 68 66" fill="none" xmlns="http://www.w3.org/2000/svg">
<path d="M39.6183 47.0947C39.4339 48.2238 39.1409 49.3145 38.7461 50.3576L42.2884 53.5673C41.7917 54.6127 41.226 55.6174 40.5732 56.5609L36.0251 55.0947C35.3078 55.9715 34.5045 56.7736 33.6277 57.4909L35.094 62.0391C34.1504 62.6919 33.1458 63.2564 32.1004 63.7542L28.8906 60.2119C27.8475 60.6067 26.758 60.8998 25.6278 61.0842L24.6174 65.7635C24.0461 65.8088 23.4725 65.8507 22.8887 65.8507C22.3049 65.8507 21.7313 65.8088 21.1588 65.7635L20.1485 61.0842C19.0194 60.8998 17.9288 60.6067 16.8856 60.2119L13.6759 63.7542C12.6305 63.2575 11.6259 62.6919 10.6823 62.0391L12.1486 57.4909C11.2717 56.7736 10.4696 55.9704 9.75231 55.0947L5.20418 56.5609C4.55138 55.6174 3.98682 54.6127 3.48902 53.5673L7.03135 50.3576C6.6365 49.3145 6.34348 48.225 6.15906 47.0947L1.47969 46.0844C1.43444 45.5119 1.39258 44.9383 1.39258 44.3545C1.39258 43.7707 1.43444 43.1971 1.47969 42.6247L6.15906 41.6143C6.34348 40.4852 6.6365 39.3946 7.03135 38.3514L3.48902 35.1417C3.98569 34.0963 4.55138 33.0917 5.20418 32.1481L9.75231 33.6144C10.4696 32.7376 11.2729 31.9354 12.1497 31.2181L10.6834 26.67C11.627 26.0172 12.6317 25.4526 13.677 24.9548L16.8868 28.4972C17.9299 28.1023 19.0194 27.8093 20.1496 27.6249L21.16 22.9455C21.7313 22.9003 22.3049 22.8584 22.8887 22.8584C23.4725 22.8584 24.0461 22.9003 24.6186 22.9455L25.6289 27.6249C26.758 27.8093 27.8487 28.1023 28.8918 28.4972L32.1015 24.9548C33.1469 25.4515 34.1515 26.0172 35.0951 26.67L33.6288 31.2181C34.5057 31.9354 35.3078 32.7387 36.0251 33.6155L40.5732 32.1493C41.226 33.0928 41.7906 34.0975 42.2884 35.1429L38.7461 38.3526C39.1409 39.3957 39.4339 40.4852 39.6183 41.6155L44.2977 42.6258C44.343 43.1971 44.3848 43.7707 44.3848 44.3545C44.3848 44.9383 44.343 45.5119 44.2977 46.0844L39.6183 47.0947ZM22.8887 33.0408C16.6401 33.0408 11.575 38.1059 11.575 44.3545C11.575 50.6031 16.6401 55.6683 22.8887 55.6683C29.1373 55.6683 34.2025 50.6031 34.2025 44.3545C34.2025 38.1059 29.1373 33.0408 22.8887 33.0408Z" fill="#009EE1"/>
<path d="M55.3127 15.2839C55.1362 15.8688 54.9054 16.43 54.6214 16.9583L56.4079 20.3819C55.8049 21.1444 55.117 21.8323 54.3544 22.4353L50.9309 20.6489C50.4025 20.934 49.8414 21.1648 49.2565 21.3402L48.0979 25.0284C47.6205 25.085 47.1385 25.1212 46.6475 25.1212C46.1565 25.1212 45.6745 25.085 45.1982 25.0296L44.0397 21.3413C43.4548 21.1659 42.8936 20.934 42.3653 20.65L38.9417 22.4365C38.1792 21.8334 37.4913 21.1456 36.8883 20.383L38.6747 16.9595C38.3896 16.4311 38.1588 15.87 37.9834 15.285L34.2952 14.1265C34.2386 13.6491 34.2024 13.1671 34.2024 12.6761C34.2024 12.1851 34.2386 11.7031 34.294 11.2268L37.9823 10.0683C38.1577 9.48334 38.3896 8.92218 38.6736 8.39383L36.8871 4.97029C37.4902 4.20774 38.178 3.51986 38.9406 2.91684L42.3641 4.70328C42.8925 4.41818 43.4536 4.18738 44.0386 4.01201L45.1971 0.32373C45.6745 0.267161 46.1565 0.230957 46.6475 0.230957C47.1385 0.230957 47.6205 0.267161 48.0968 0.322599L49.2553 4.01088C49.8403 4.18624 50.4014 4.41818 50.9298 4.70215L54.3533 2.91571C55.1159 3.51873 55.8037 4.20661 56.4068 4.96916L54.6203 8.3927C54.9054 8.92105 55.1362 9.48221 55.3116 10.0671L58.9999 11.2257C59.0564 11.7031 59.0926 12.1851 59.0926 12.6761C59.0926 13.1671 59.0564 13.6491 59.001 14.1254L55.3127 15.2839ZM46.6475 8.15058C44.1483 8.15058 42.122 10.1769 42.122 12.6761C42.122 15.1753 44.1483 17.2016 46.6475 17.2016C49.1467 17.2016 51.173 15.1753 51.173 12.6761C51.173 10.1769 49.1467 8.15058 46.6475 8.15058Z" fill="#009EE1"/>
<path d="M64.4542 40.8143C64.2799 41.4422 64.0344 42.0373 63.7199 42.5928L64.8456 44.9619C64.3342 45.6147 63.7471 46.2019 63.0943 46.7133L60.7252 45.5876C60.1708 45.9021 59.5745 46.1476 58.9466 46.3218L58.0664 48.7973C57.6603 48.8471 57.2496 48.8799 56.8298 48.8799C56.4101 48.8799 55.9994 48.8471 55.5932 48.7973L54.713 46.3218C54.0851 46.1476 53.49 45.9021 52.9345 45.5876L50.5654 46.7133C49.9126 46.2019 49.3254 45.6147 48.814 44.9619L49.9398 42.5928C49.6252 42.0385 49.3797 41.4422 49.2055 40.8154L46.7301 39.9352C46.6803 39.5279 46.6475 39.1173 46.6475 38.6975C46.6475 38.2778 46.6803 37.8671 46.7301 37.4609L49.2055 36.5807C49.3797 35.9528 49.6252 35.3577 49.9398 34.8033L48.814 32.4342C49.3254 31.7814 49.9126 31.1942 50.5654 30.6829L52.9345 31.8086C53.4889 31.494 54.0851 31.2485 54.713 31.0743L55.5932 28.5989C55.9994 28.5479 56.4101 28.5151 56.8298 28.5151C57.2496 28.5151 57.6603 28.5479 58.0664 28.5977L58.9466 31.0732C59.5745 31.2474 60.1697 31.4929 60.7252 31.8074L63.0943 30.6817C63.7471 31.1931 64.3342 31.7803 64.8456 32.4331L63.7199 34.8022C64.0344 35.3566 64.2799 35.9528 64.4542 36.5807L66.9296 37.4609C66.9794 37.8671 67.0122 38.2778 67.0122 38.6975C67.0122 39.1173 66.9794 39.5279 66.9296 39.9341L64.4542 40.8143ZM56.8298 35.3034C54.9551 35.3034 53.4357 36.8228 53.4357 38.6975C53.4357 40.5722 54.9551 42.0916 56.8298 42.0916C58.7045 42.0916 60.224 40.5722 60.224 38.6975C60.224 36.8228 58.7045 35.3034 56.8298 35.3034Z" fill="#009EE1"/>
<path d="M67.2341 2.51621L60.4674 1.16309L59.1143 7.92871L61.3329 8.37334L61.9427 5.32768C63.039 7.60853 63.6183 10.1224 63.6183 12.676C63.6183 16.5769 62.3308 20.2449 59.896 23.2826L61.6621 24.6979C64.3831 21.3027 65.881 17.034 65.881 12.676C65.881 9.71289 65.1965 6.79168 63.8943 4.15557L66.7906 4.73484L67.2341 2.51621Z" fill="#8665CB"/>
<path d="M24.82 11.8765L23.2202 13.4762L24.7578 15.0138C24.1355 14.9742 23.5121 14.9391 22.8887 14.9391C14.1364 14.9391 5.89775 18.7982 0.286133 25.5276L2.02392 26.9769C7.20449 20.7645 14.8085 17.2018 22.8887 17.2018C23.4646 17.2018 24.0394 17.2347 24.6141 17.2709L23.2202 18.6647L24.82 20.2645L29.014 16.0705L24.82 11.8765Z" fill="#8665CB"/>
</svg>
