<svg width="464" height="62" viewBox="0 0 464 62" fill="none" xmlns="http://www.w3.org/2000/svg">
<path d="M35.3255 12.2465H28.2603L31.7929 6.12324L35.3255 0L38.8582 6.12324L42.3908 12.2465H35.3255Z" fill="#00B8E9"/>
<path d="M21.1952 36.6806H14.1299L17.6625 30.5573L21.1952 24.4341L24.7278 30.5573L28.2604 36.6806H21.1952Z" fill="#00B8E9"/>
<path d="M42.3919 48.8683H35.3267L38.8593 42.8039L42.3919 36.6807L45.9246 42.8039L49.4572 48.8683H42.3919Z" fill="#00B8E9"/>
<path d="M56.5228 48.8683H49.4575L52.9902 42.8039L56.5228 36.6807L59.9966 42.8039L63.5292 48.8683H56.5228Z" fill="#00B8E9"/>
<path d="M49.4559 36.6806H42.3906L45.9233 30.5573L49.4559 24.4341L52.9885 30.5573L56.4623 36.6806H49.4559Z" fill="#544BFD"/>
<path d="M14.1302 48.8683H7.06494L10.5976 42.8039L14.1302 36.6807L17.6629 42.8039L21.1955 48.8683H14.1302Z" fill="#544BFD"/>
<path d="M35.3255 61.1147H28.2603L31.7929 54.9914L35.3255 48.8682L38.8582 54.9914L42.3908 61.1147H35.3255Z" fill="#544BFD"/>
<path d="M42.3919 24.4337H35.3267L38.8593 18.3105L42.3919 12.2461L45.9246 18.3105L49.4572 24.4337H42.3919Z" fill="#2325C9"/>
<path d="M28.2611 24.4337H21.1958L24.7284 18.3105L28.2611 12.2461L31.7937 18.3105L35.3264 24.4337H28.2611Z" fill="#2325C9"/>
<path d="M63.5289 61.1147H56.5225L59.9962 54.9914L63.5289 48.8682L67.0615 54.9914L70.5941 61.1147H63.5289Z" fill="#2325C9"/>
<path d="M7.06528 61.1147H0L3.53264 54.9914L7.06528 48.8682L10.5979 54.9914L14.1306 61.1147H7.06528Z" fill="#2325C9"/>
<path d="M21.1952 36.6807H28.2604L24.7278 42.8039L21.1952 48.8683L17.6625 42.8039L14.1299 36.6807H21.1952Z" fill="#2325C9"/>
<path d="M49.4559 36.6807H56.5212L52.9885 42.8039L49.4559 48.8683L45.9233 42.8039L42.3906 36.6807H49.4559Z" fill="#2325C9"/>
<path d="M42.3919 48.8682H49.4572L45.9246 54.9914L42.3919 61.1147L38.8593 54.9914L35.3267 48.8682H42.3919Z" fill="#2325C9"/>
<path d="M35.3255 12.2461H42.3908L38.8582 18.3105L35.3255 24.4337L31.7929 18.3105L28.2603 12.2461H35.3255Z" fill="#544BFD"/>
<path d="M28.2611 24.4341H35.3264L31.7937 30.5573L28.2611 36.6806L24.7284 30.5573L21.1958 24.4341H28.2611Z" fill="#544BFD"/>
<path d="M56.5228 48.8682H63.5292L59.9966 54.9914L56.5228 61.1147L52.9902 54.9914L49.4575 48.8682H56.5228Z" fill="#544BFD"/>
<path d="M42.3919 24.4341H49.4572L45.9246 30.5573L42.3919 36.6806L38.8593 30.5573L35.3267 24.4341H42.3919Z" fill="#00B8E9"/>
<path d="M14.1302 48.8682H21.1955L17.6629 54.9914L14.1302 61.1147L10.5976 54.9914L7.06494 48.8682H14.1302Z" fill="#00B8E9"/>
<path d="M111.867 46.3955L108.805 37.6227H96.7941L93.7324 46.3955H88.2568L99.9734 14.7783H105.685L117.401 46.3955H111.867ZM107.451 33.2069L104.448 24.6108C104.33 24.2576 104.154 23.7277 103.977 23.0211C103.742 22.3146 103.565 21.667 103.329 20.9604C103.094 20.2539 102.917 19.6651 102.8 19.1352C102.682 19.724 102.505 20.3717 102.27 21.0782C102.034 21.7847 101.858 22.4912 101.681 23.1389C101.504 23.7865 101.328 24.2576 101.269 24.6108L98.266 33.2069H107.451Z" fill="white"/>
<path d="M148.194 46.3957H142.248L132.474 32.0885L129.354 34.6202V46.3957H124.172V14.8963H129.354V29.9689C130.001 29.2035 130.649 28.4381 131.297 27.6138C131.944 26.8484 132.592 26.083 133.239 25.2587L142.13 14.8374H147.959L136.183 28.6147L148.194 46.3957Z" fill="white"/>
<path d="M154.965 46.3954V14.896H160.146V46.3954H154.965Z" fill="white"/>
<path d="M171.097 46.3954V14.896H176.278V41.9796H189.643V46.3954H171.097Z" fill="white"/>
<path d="M217.198 46.3955L214.136 37.6227H202.125L199.063 46.3955H193.588L205.304 14.7783H211.016L222.732 46.3955H217.198ZM212.782 33.2069L209.779 24.6108C209.661 24.2576 209.485 23.7277 209.308 23.0211C209.073 22.3146 208.896 21.667 208.66 20.9604C208.425 20.2539 208.248 19.6651 208.131 19.1352C208.013 19.724 207.836 20.3717 207.601 21.0782C207.365 21.7847 207.189 22.4912 207.012 23.1389C206.835 23.7865 206.659 24.2576 206.541 24.6108L203.538 33.2069H212.782Z" fill="white"/>
<path d="M244.768 44.664H241.062L251.783 15.4661H255.432L266.153 44.664H262.447L253.722 20.0853H253.493L244.768 44.664ZM246.137 33.2586H261.078V36.395H246.137V33.2586Z" fill="white"/>
<path d="M293.854 15.4661V44.664H290.433L274.522 21.7391H274.237V44.664H270.701V15.4661H274.123L290.091 38.448H290.376V15.4661H293.854Z" fill="white"/>
<path d="M302.127 44.664H298.42L309.141 15.4661H312.791L323.512 44.664H319.805L311.08 20.0853H310.852L302.127 44.664ZM303.496 33.2586H318.437V36.395H303.496V33.2586Z" fill="white"/>
<path d="M328.06 44.664V15.4661H331.596V41.5275H345.168V44.664H328.06Z" fill="white"/>
<path d="M346.761 15.4661H350.81L358.908 29.0956H359.25L367.348 15.4661H371.397L360.847 32.6313V44.664H357.311V32.6313L346.761 15.4661Z" fill="white"/>
<path d="M376.216 18.6026V15.4661H398.114V18.6026H388.933V44.664H385.397V18.6026H376.216Z" fill="white"/>
<path d="M407.107 15.4661V44.664H403.571V15.4661H407.107Z" fill="white"/>
<path d="M437.691 24.5904H434.155C433.946 23.5734 433.58 22.68 433.058 21.9102C432.544 21.1403 431.917 20.494 431.176 19.9712C430.444 19.439 429.631 19.0398 428.738 18.7737C427.844 18.5075 426.913 18.3745 425.944 18.3745C424.176 18.3745 422.574 18.8212 421.139 19.7146C419.713 20.608 418.578 21.9244 417.732 23.6637C416.895 25.4031 416.477 27.5368 416.477 30.065C416.477 32.5932 416.895 34.727 417.732 36.4663C418.578 38.2057 419.713 39.522 421.139 40.4155C422.574 41.3089 424.176 41.7556 425.944 41.7556C426.913 41.7556 427.844 41.6225 428.738 41.3564C429.631 41.0903 430.444 40.6958 431.176 40.1731C431.917 39.6408 432.544 38.9898 433.058 38.2199C433.58 37.4405 433.946 36.5471 434.155 35.5396H437.691C437.425 37.0318 436.94 38.3672 436.237 39.5458C435.534 40.7244 434.659 41.7271 433.614 42.554C432.568 43.3714 431.394 43.9939 430.092 44.4216C428.8 44.8493 427.417 45.0632 425.944 45.0632C423.453 45.0632 421.239 44.4549 419.3 43.2383C417.361 42.0217 415.835 40.2919 414.723 38.0488C413.611 35.8058 413.055 33.1445 413.055 30.065C413.055 26.9856 413.611 24.3243 414.723 22.0812C415.835 19.8382 417.361 18.1083 419.3 16.8918C421.239 15.6752 423.453 15.0669 425.944 15.0669C427.417 15.0669 428.8 15.2807 430.092 15.7085C431.394 16.1362 432.568 16.7635 433.614 17.5903C434.659 18.4077 435.534 19.4057 436.237 20.5843C436.94 21.7533 437.425 23.0887 437.691 24.5904Z" fill="white"/>
<path d="M459.372 22.7656C459.201 21.3209 458.507 20.1993 457.291 19.401C456.074 18.6026 454.582 18.2034 452.814 18.2034C451.521 18.2034 450.39 18.4125 449.421 18.8307C448.461 19.2489 447.71 19.8239 447.168 20.5558C446.636 21.2876 446.37 22.1193 446.37 23.0507C446.37 23.8301 446.555 24.5001 446.926 25.0609C447.306 25.6122 447.791 26.0731 448.38 26.4438C448.969 26.805 449.587 27.1044 450.234 27.342C450.88 27.5701 451.474 27.7554 452.016 27.898L454.981 28.6964C455.741 28.896 456.587 29.1716 457.519 29.5233C458.46 29.8749 459.358 30.3549 460.213 30.9632C461.078 31.562 461.791 32.3319 462.352 33.2728C462.913 34.2138 463.193 35.3686 463.193 36.7372C463.193 38.315 462.779 39.7406 461.953 41.0142C461.135 42.2878 459.938 43.3001 458.36 44.0509C456.792 44.8018 454.886 45.1772 452.643 45.1772C450.552 45.1772 448.741 44.8398 447.211 44.165C445.69 43.4902 444.493 42.5492 443.618 41.3421C442.753 40.1351 442.264 38.7332 442.15 37.1364H445.8C445.895 38.2389 446.265 39.1514 446.912 39.8737C447.568 40.5865 448.394 41.1188 449.392 41.4705C450.4 41.8126 451.483 41.9837 452.643 41.9837C453.993 41.9837 455.204 41.7651 456.278 41.3279C457.352 40.8812 458.203 40.2634 458.83 39.4745C459.458 38.6761 459.771 37.7447 459.771 36.6802C459.771 35.7107 459.5 34.9218 458.959 34.3136C458.417 33.7053 457.704 33.211 456.82 32.8308C455.936 32.4507 454.981 32.118 453.955 31.8329L450.362 30.8064C448.081 30.1506 446.275 29.2144 444.944 27.9978C443.614 26.7812 442.948 25.1892 442.948 23.2218C442.948 21.587 443.39 20.1613 444.274 18.9447C445.168 17.7187 446.365 16.7682 447.867 16.0934C449.378 15.4091 451.065 15.0669 452.928 15.0669C454.81 15.0669 456.483 15.4043 457.946 16.0791C459.41 16.7444 460.57 17.6569 461.425 18.8164C462.29 19.976 462.746 21.2924 462.794 22.7656H459.372Z" fill="white"/>
</svg>
