<svg width="54" height="54" viewBox="0 0 54 54" fill="none" xmlns="http://www.w3.org/2000/svg">
<path d="M15.032 21.313H23.626V53.7411H15.032V21.313Z" fill="#009EE1"/>
<path d="M29.8137 28.188H38.4077V53.7409H29.8137V28.188Z" fill="#009EE1"/>
<path d="M44.5952 16.042H53.1892V53.7411H44.5952V16.042Z" fill="#009EE1"/>
<path d="M0.250488 33.5737H8.84451V53.741H0.250488V33.5737Z" fill="#009EE1"/>
<path d="M48.5966 0.114258C46.1935 0.114258 44.2455 2.06097 44.2455 4.46237C44.2455 5.02442 44.3533 5.56103 44.5477 6.0541L36.1618 13.1978C35.5465 12.8647 34.8417 12.6755 34.0927 12.6755C32.8491 12.6755 31.7282 13.1977 30.9353 14.0336L23.6962 11.0688C23.6967 11.0407 23.6983 11.0128 23.6983 10.9845C23.6983 8.58315 21.7502 6.63643 19.3471 6.63643C16.944 6.63643 14.996 8.58315 14.996 10.9845C14.996 11.2276 15.0169 11.4656 15.0553 11.6977L7.53436 16.1445C6.79378 15.561 5.85967 15.2119 4.8434 15.2119C2.44028 15.2119 0.492188 17.1586 0.492188 19.56C0.492188 21.9614 2.44028 23.9081 4.8434 23.9081C7.24651 23.9081 9.19449 21.9614 9.19449 19.56C9.19449 19.317 9.17364 19.079 9.13525 18.8468L16.6562 14.4C17.3967 14.9835 18.3309 15.3327 19.3472 15.3327C20.5908 15.3327 21.7117 14.8105 22.5047 13.9746L29.7438 16.9394C29.7433 16.9675 29.7416 16.9953 29.7416 17.0235C29.7416 19.4249 31.6897 21.3716 34.0929 21.3716C36.496 21.3716 38.444 19.4249 38.444 17.0235C38.444 16.5204 38.3574 16.0376 38.2001 15.5881L46.6785 8.36543C47.2573 8.64995 47.908 8.81049 48.5967 8.81049C50.9998 8.81049 52.9479 6.86377 52.9479 4.46237C52.9479 2.06097 50.9997 0.114258 48.5966 0.114258V0.114258Z" fill="#8665CB"/>
</svg>
