<?xml version="1.0" standalone="no"?>
<!DOCTYPE svg PUBLIC "-//W3C//DTD SVG 20010904//EN"
 "http://www.w3.org/TR/2001/REC-SVG-20010904/DTD/svg10.dtd">
<svg version="1.0" xmlns="http://www.w3.org/2000/svg"
 width="700.000000pt" height="700.000000pt" viewBox="0 0 700.000000 700.000000"
 preserveAspectRatio="xMidYMid meet">
<metadata>
Created by potrace 1.14, written by Peter Selinger 2001-2017
</metadata>
<g transform="translate(0.000000,700.000000) scale(0.100000,-0.100000)"
fill="#000000" stroke="none">
<path d="M3360 5743 c-74 -130 -199 -349 -277 -487 l-143 -251 280 -3 c154 -1
406 -1 560 0 l280 3 -276 480 c-152 264 -279 483 -283 487 -3 3 -67 -100 -141
-229z"/>
<path d="M2894 4938 c-17 -29 -146 -252 -287 -496 -142 -244 -255 -447 -252
-452 3 -5 1 -10 -4 -12 -4 -1 -129 -212 -276 -468 -147 -256 -276 -476 -285
-490 -10 -14 -110 -185 -223 -380 -112 -195 -241 -417 -285 -493 l-81 -137
577 2 576 3 80 135 c65 111 345 598 457 795 l28 51 -45 79 c-25 44 -59 104
-75 133 -17 28 -28 52 -25 52 2 0 37 -57 76 -126 40 -69 76 -122 80 -117 7 6
470 812 544 945 l21 38 577 0 577 0 -123 213 c-67 116 -196 339 -287 495
l-164 282 -575 0 -576 0 -30 -52z m-139 -1638 c9 -16 13 -30 11 -30 -3 0 -12
14 -21 30 -9 17 -13 30 -11 30 3 0 12 -13 21 -30z"/>
<path d="M3513 3983 c3 -5 123 -213 267 -463 144 -250 271 -469 281 -486 l19
-31 -111 -194 c-152 -264 -447 -768 -498 -853 -39 -62 -501 -869 -530 -923
l-12 -23 573 0 573 0 285 495 c156 272 287 495 290 495 3 0 133 -223 290 -495
l285 -495 573 0 c314 0 572 3 572 6 0 8 -526 921 -565 979 -46 69 -578 987
-586 1011 -2 6 -130 230 -284 497 l-280 486 -573 1 c-315 0 -571 -3 -569 -7z
m1087 -73 c-6 -11 -13 -20 -16 -20 -2 0 0 9 6 20 6 11 13 20 16 20 2 0 0 -9
-6 -20z m-40 -70 c-6 -11 -13 -20 -16 -20 -2 0 0 9 6 20 6 11 13 20 16 20 2 0
0 -9 -6 -20z m-40 -70 c-6 -11 -13 -20 -16 -20 -2 0 0 9 6 20 6 11 13 20 16
20 2 0 0 -9 -6 -20z m-40 -70 c-6 -11 -13 -20 -16 -20 -2 0 0 9 6 20 6 11 13
20 16 20 2 0 0 -9 -6 -20z m-30 -50 c-6 -11 -13 -20 -16 -20 -2 0 0 9 6 20 6
11 13 20 16 20 2 0 0 -9 -6 -20z m-40 -70 c-6 -11 -13 -20 -16 -20 -2 0 0 9 6
20 6 11 13 20 16 20 2 0 0 -9 -6 -20z m-40 -70 c-6 -11 -13 -20 -16 -20 -2 0
0 9 6 20 6 11 13 20 16 20 2 0 0 -9 -6 -20z m-40 -70 c-6 -11 -13 -20 -16 -20
-2 0 0 9 6 20 6 11 13 20 16 20 2 0 0 -9 -6 -20z m-30 -50 c-6 -11 -13 -20
-16 -20 -2 0 0 9 6 20 6 11 13 20 16 20 2 0 0 -9 -6 -20z m-40 -70 c-6 -11
-13 -20 -16 -20 -2 0 0 9 6 20 6 11 13 20 16 20 2 0 0 -9 -6 -20z m-40 -70
c-6 -11 -13 -20 -16 -20 -2 0 0 9 6 20 6 11 13 20 16 20 2 0 0 -9 -6 -20z
m-40 -70 c-6 -11 -13 -20 -16 -20 -2 0 0 9 6 20 6 11 13 20 16 20 2 0 0 -9 -6
-20z m-30 -50 c-6 -11 -13 -20 -16 -20 -2 0 0 9 6 20 6 11 13 20 16 20 2 0 0
-9 -6 -20z m-40 -70 c-6 -11 -13 -20 -16 -20 -2 0 0 9 6 20 6 11 13 20 16 20
2 0 0 -9 -6 -20z"/>
<path d="M912 1511 c-155 -270 -282 -492 -282 -495 0 -4 257 -5 571 -4 l571 3
260 450 c142 248 270 469 284 493 l25 42 -573 0 -573 0 -283 -489z m438 249
c6 -11 8 -20 6 -20 -3 0 -10 9 -16 20 -6 11 -8 20 -6 20 3 0 10 -9 16 -20z
m150 -260 c6 -11 8 -20 6 -20 -3 0 -10 9 -16 20 -6 11 -8 20 -6 20 3 0 10 -9
16 -20z m150 -260 c6 -11 8 -20 6 -20 -3 0 -10 9 -16 20 -6 11 -8 20 -6 20 3
0 10 -9 16 -20z"/>
</g>
</svg>
