<?xml version="1.0" encoding="UTF-8" standalone="no"?> <svg xmlns="http://www.w3.org/2000/svg" xmlns:xlink="http://www.w3.org/1999/xlink" viewBox="0 0 64 64"><defs><style>.cls-1{fill:url(#linear-gradient);}.cls-2{fill:url(#linear-gradient-2);}</style><linearGradient id="linear-gradient" x1="2.99" y1="32" x2="61" y2="32" gradientUnits="userSpaceOnUse"><stop offset="0" stop-color="#19dd33"/><stop offset="0.43" stop-color="#0fa922"/><stop offset="0.8" stop-color="#088215"/><stop offset="1" stop-color="#057310"/></linearGradient><linearGradient id="linear-gradient-2" x1="23.92" y1="32" x2="40.08" y2="32" xlink:href="#linear-gradient"/></defs><g id="Layer_20" data-name="Layer 20"><path class="cls-1" d="M53.35,37.65a4.54,4.54,0,0,0-.78,1.09,7.8,7.8,0,0,1-2.79-2.8,4.32,4.32,0,0,0,1.09-.77,4.48,4.48,0,0,0,0-6.34,4.32,4.32,0,0,0-1.09-.77,7.8,7.8,0,0,1,2.79-2.8,4.54,4.54,0,0,0,.78,1.09,4.5,4.5,0,1,0-1.3-3.09,9.82,9.82,0,0,0-4.26,4.27,4.38,4.38,0,0,0-1.39.21l-3.49-6,.15-.12a4.44,4.44,0,0,0-1.12-7.14,7.93,7.93,0,0,1,2.78-2.77,4.35,4.35,0,0,0,.78,1.09,4.5,4.5,0,1,0-1.3-3.08,9.88,9.88,0,0,0-4.26,4.25h0a4.45,4.45,0,0,0-4.36,3.48H29.27a4.43,4.43,0,0,0-1.18-2.17,4.5,4.5,0,0,0-4-1.23,9.84,9.84,0,0,0-4.3-4.33,4.47,4.47,0,0,0-7.64-3.25,4.48,4.48,0,0,0,3.17,7.64,4.43,4.43,0,0,0,3.17-1.31,4.35,4.35,0,0,0,.78-1.09,7.82,7.82,0,0,1,3,3.15,4.93,4.93,0,0,0-.51.42,4.48,4.48,0,0,0-.34,5.92L17.6,27.74a4.49,4.49,0,0,0-1.4-.21,9.9,9.9,0,0,0-4.26-4.26,4.46,4.46,0,1,0-1.3,3.08,4.35,4.35,0,0,0,.78-1.09,8,8,0,0,1,2.79,2.8,4.42,4.42,0,0,0-1.08,7.11,4.26,4.26,0,0,0,1.08.77,8,8,0,0,1-2.79,2.8,4.35,4.35,0,0,0-.78-1.09A4.48,4.48,0,1,0,4.3,44a4.47,4.47,0,0,0,7.64-3.25,9.9,9.9,0,0,0,4.26-4.26h.09a4.44,4.44,0,0,0,1.31-.22l3.81,6.59a4.48,4.48,0,0,0,.34,5.92,4.93,4.93,0,0,0,.51.42,7.82,7.82,0,0,1-3,3.15,4.35,4.35,0,0,0-.78-1.09,4.48,4.48,0,1,0-3.17,7.64,4.46,4.46,0,0,0,4.47-4.56A9.84,9.84,0,0,0,24.09,50a4.58,4.58,0,0,0,.83.08,4.49,4.49,0,0,0,3.17-1.31,4.43,4.43,0,0,0,1.18-2.17h6.27a4.45,4.45,0,0,0,4.36,3.48h0a9.88,9.88,0,0,0,4.26,4.25,4.47,4.47,0,0,0,7.63,3.25,4.48,4.48,0,0,0-6.33-6.33,4.35,4.35,0,0,0-.78,1.09,7.93,7.93,0,0,1-2.78-2.77,4.46,4.46,0,0,0,1.12-7.14l-.15-.12,3.49-6.05a4.5,4.5,0,0,0,1.31.22h.08a9.82,9.82,0,0,0,4.26,4.27,4.47,4.47,0,1,0,1.3-3.09Zm1.42-16.22a2.49,2.49,0,0,1,3.5,0,2.48,2.48,0,1,1-3.5,0ZM46.91,7.83a2.48,2.48,0,1,1,0,3.51A2.5,2.5,0,0,1,46.91,7.83ZM13.57,11.34a2.48,2.48,0,1,1,3.51,0A2.48,2.48,0,0,1,13.57,11.34ZM5.72,24.94a2.47,2.47,0,0,1,0-3.51,2.49,2.49,0,0,1,3.5,0,2.48,2.48,0,1,1-3.5,3.51Zm3.5,17.63a2.53,2.53,0,0,1-3.5,0,2.48,2.48,0,1,1,3.5,0Zm7.86,13.6a2.48,2.48,0,1,1,0-3.51A2.48,2.48,0,0,1,17.08,56.17Zm31.59-4.23a2.48,2.48,0,1,1-1.76.72A2.48,2.48,0,0,1,48.67,51.94Zm.79-18.19a2.48,2.48,0,1,1,0-3.5A2.48,2.48,0,0,1,49.46,33.75ZM38.14,16.65a2.48,2.48,0,1,1,3.51,3.5,2.54,2.54,0,0,1-3.51,0A2.49,2.49,0,0,1,38.14,16.65Zm-11.47,0a2.51,2.51,0,0,1,.73,1.74h0v0a2.5,2.5,0,0,1-.73,1.73,2.47,2.47,0,0,1-3.5-3.5,2.46,2.46,0,0,1,3.5,0ZM14.54,30.25a2.48,2.48,0,1,1,0,3.5A2.48,2.48,0,0,1,14.54,30.25Zm8.63,17.1a2.47,2.47,0,0,1,0-3.5,2.46,2.46,0,0,1,3.5,0,2.5,2.5,0,0,1,.73,1.73v0h0a2.51,2.51,0,0,1-.73,1.74A2.47,2.47,0,0,1,23.17,47.35Zm18.48,0a2.54,2.54,0,0,1-3.51,0,2.48,2.48,0,0,1,1.76-4.23,2.47,2.47,0,0,1,1.75,4.23Zm-.48-6a4.17,4.17,0,0,0-1.27-.21,4.45,4.45,0,0,0-4.36,3.48H29.27a4.43,4.43,0,0,0-6.29-3l-3.64-6.31.12-.1a4.48,4.48,0,0,0,0-6.34l-.12-.1L23,22.42a4.57,4.57,0,0,0,1.94.46,4.42,4.42,0,0,0,4.35-3.48h6.27a4.45,4.45,0,0,0,4.36,3.48,4.17,4.17,0,0,0,1.27-.21l3.49,6.06-.12.1a4.48,4.48,0,0,0,0,6.34l.12.1Zm17.1,1.24a2.53,2.53,0,0,1-3.5,0,2.48,2.48,0,1,1,3.5,0Z"/><path class="cls-2" d="M32,23.92A8.08,8.08,0,1,0,40.08,32,8.08,8.08,0,0,0,32,23.92Zm0,14.16A6.08,6.08,0,1,1,38.08,32,6.09,6.09,0,0,1,32,38.08Z"/></g></svg>