<svg xmlns="http://www.w3.org/2000/svg" xmlns:xlink="http://www.w3.org/1999/xlink" viewBox="0 0 64 64"><defs><style>.cls-1{fill:url(#linear-gradient);}.cls-2{fill:url(#linear-gradient-2);}.cls-3{fill:url(#linear-gradient-3);}.cls-4{fill:url(#linear-gradient-4);}.cls-5{fill:url(#linear-gradient-5);}</style><linearGradient id="linear-gradient" x1="23" y1="24.03" x2="39" y2="24.03" gradientUnits="userSpaceOnUse"><stop offset="0" stop-color="#9f2fff"/><stop offset="1" stop-color="#0bb1d3"/></linearGradient><linearGradient id="linear-gradient-2" x1="27.02" y1="24" x2="35" y2="24" xlink:href="#linear-gradient"/><linearGradient id="linear-gradient-3" x1="31.49" y1="43" x2="33.49" y2="43" xlink:href="#linear-gradient"/><linearGradient id="linear-gradient-4" x1="3" y1="28.44" x2="60.05" y2="28.44" xlink:href="#linear-gradient"/><linearGradient id="linear-gradient-5" x1="19.19" y1="51.72" x2="46.1" y2="51.72" xlink:href="#linear-gradient"/></defs><g id="CLOUD_SERVER-3" data-name="CLOUD SERVER"><path class="cls-1" d="M23,24a8,8,0,0,0,16,0C38.6,13.4,23.4,13.4,23,24Zm8,6c-7.93-.25-7.93-11.75,0-12C38.93,18.25,38.93,29.75,31,30Z"/><path class="cls-2" d="M34,23H28a1,1,0,0,0,0,2h6a1,1,0,0,0,0-2Z"/><path class="cls-3" d="M32.11,43.92a.6.6,0,0,0,.19.06,1,1,0,1,0,0-2,.6.6,0,0,0-.19.06.56.56,0,0,0-.17.09l-.16.12a1,1,0,0,0,0,1.42l.16.12A.56.56,0,0,0,32.11,43.92Z"/><path class="cls-4" d="M56.07,36.49A3.46,3.46,0,0,0,52.76,39H50.19V35h6.74a1,1,0,0,0,.42-.1c6.15-6.81,1-18.32-8-18.8a14.35,14.35,0,0,0-16.15-4.41C28.52.21,12.08,3.06,11.32,15.4A11.67,11.67,0,0,0,6.25,34.66,1,1,0,0,0,7,35h6.84v4H11.24a3.47,3.47,0,1,0,0,2h3.54a1,1,0,0,0,.73-.29,1,1,0,0,0,.29-.72V35h5.86V48H16.16a3.47,3.47,0,1,0,0,2h6.51a1,1,0,0,0,1-1V35h7.82v5a1,1,0,1,0,2,0V35h6.84s0,14,0,14a1,1,0,0,0,1,1H47.8a3.47,3.47,0,1,0,0-2H42.33V35h5.86v5a1,1,0,0,0,.29.72,1,1,0,0,0,.73.29h3.54a3.47,3.47,0,1,0,3.32-4.48Zm-48.14,5a1.48,1.48,0,0,1,0-3A1.48,1.48,0,0,1,7.93,41.48Zm4.91,9a1.48,1.48,0,0,1,0-3A1.48,1.48,0,0,1,12.84,50.47Zm38.27-3a1.48,1.48,0,0,1,0,3A1.48,1.48,0,0,1,51.11,47.51ZM7.41,33a9.65,9.65,0,0,1,5.1-15.79A1,1,0,0,0,13.3,16a9.36,9.36,0,0,1,18.38-2.71,1,1,0,0,0,.55.63,1,1,0,0,0,.84,0,12,12,0,0,1,5.19-1.16,12.31,12.31,0,0,1,9.83,4.9,1,1,0,0,0,.77.39c7.29.09,11.72,8.9,7.55,14.93Zm48.66,8.49a1.48,1.48,0,0,1,0-3A1.48,1.48,0,0,1,56.07,41.45Z"/><path class="cls-5" d="M42.62,51.52A3.47,3.47,0,0,0,39.3,54H33.49V46a1,1,0,0,0-2,0v8H26a3.47,3.47,0,1,0,0,2H39.31a3.47,3.47,0,1,0,3.31-4.48ZM22.67,56.47a1.48,1.48,0,0,1,0-2.95A1.48,1.48,0,0,1,22.67,56.47Zm19.95,0a1.48,1.48,0,0,1,0-2.95A1.48,1.48,0,0,1,42.62,56.47Z"/></g></svg>