<svg xmlns="http://www.w3.org/2000/svg" version="1.1" xmlnsXlink="http://www.w3.org/1999/xlink"  width="1840"
height="560" preserveAspectRatio="none" viewBox="0 0 1240 700">
  <g mask="url(&quot;#SvgjsMask1000&quot;)" fill="none">
    <path d="M0 456.88L10 393.51L20 431.21L30 459.34L40 445.13L50 478.13L60 501.04L70 555.35L80 519.79L90 457.46L100 491.04L110 554.92L120 511.83L130 449.46L140 444.43L150 440.77L160 485.65L170 433.31L180 412.53L190 427.63L200 441.64L210 485.11L220 469.26L230 479.59L240 457.24L250 445.05L260 459.39L270 431.62L280 457.66L290 423.99L300 492.56L310 549.89L320 524.28L330 525.98L340 509.14L350 530.85L360 474.38L370 518.82L380 542.94L390 536.37L400 517.03L410 475.99L420 407.11L430 377.13L440 327.56L450 299.11L460 241.11L470 197.71L480 134.69L490 196.4L500 127.41L510 133.45L520 197.34L530 253.56L540 218.74L550 180.97L560 190.3L570 258.07L580 277.12L590 322.18L600 333.33L610 320.63L620 330.12L630 315.01L640 254.66L650 218.75L660 259.79L670 236.82L680 189.18L690 194.76L700 192.94L710 231.49L720 262.77L730 238.48L740 294.5L750 260.76L760 305.17L770 290.02L780 300.14L790 362.68L800 412.01L810 417.8L820 482.85L830 430.38L840 430.47L850 361.2L860 293.87L870 317.42L880 267.83L890 224.58L900 171.44L910 187.51L920 130.32L930 131.99L940 104.77L950 59.37L960 111.33L970 159.18L980 94.08L990 67.07L1000 76.55L1010 76.68L1020 91.82L1030 114.13L1040 92.58L1050 157.67L1060 91.19L1070 38.32L1080 23L1090 52.49L1100 112.65L1110 90.18L1120 40.56L1130 37.88L1140 1.36L1150 29.14L1160 61.43L1170 118.96L1180 179.34L1190 114.19L1200 143.45L1210 87.14L1220 74.2L1230 53.07L1240 66.73L1250 125.87L1260 148.47L1270 81.72L1280 70.07L1290 83.29L1300 74.84L1310 87.58L1320 79.21L1330 145.6L1340 123.38L1350 123.68L1360 94.7L1370 125.79L1380 185.02L1390 208.54L1400 208.42L1410 219.83L1420 260.1L1430 258.01L1440 293.06" stroke="#224b75" stroke-width="2"/>
    <path d="M0 456.88L10 393.51L20 431.21L30 459.34L40 445.13L50 478.13L60 501.04L70 555.35L80 519.79L90 457.46L100 491.04L110 554.92L120 511.83L130 449.46L140 444.43L150 440.77L160 485.65L170 433.31L180 412.53L190 427.63L200 441.64L210 485.11L220 469.26L230 479.59L240 457.24L250 445.05L260 459.39L270 431.62L280 457.66L290 423.99L300 492.56L310 549.89L320 524.28L330 525.98L340 509.14L350 530.85L360 474.38L370 518.82L380 542.94L390 536.37L400 517.03L410 475.99L420 407.11L430 377.13L440 327.56L450 299.11L460 241.11L470 197.71L480 134.69L490 196.4L500 127.41L510 133.45L520 197.34L530 253.56L540 218.74L550 180.97L560 190.3L570 258.07L580 277.12L590 322.18L600 333.33L610 320.63L620 330.12L630 315.01L640 254.66L650 218.75L660 259.79L670 236.82L680 189.18L690 194.76L700 192.94L710 231.49L720 262.77L730 238.48L740 294.5L750 260.76L760 305.17L770 290.02L780 300.14L790 362.68L800 412.01L810 417.8L820 482.85L830 430.38L840 430.47L850 361.2L860 293.87L870 317.42L880 267.83L890 224.58L900 171.44L910 187.51L920 130.32L930 131.99L940 104.77L950 59.37L960 111.33L970 159.18L980 94.08L990 67.07L1000 76.55L1010 76.68L1020 91.82L1030 114.13L1040 92.58L1050 157.67L1060 91.19L1070 38.32L1080 23L1090 52.49L1100 112.65L1110 90.18L1120 40.56L1130 37.88L1140 1.36L1150 29.14L1160 61.43L1170 118.96L1180 179.34L1190 114.19L1200 143.45L1210 87.14L1220 74.2L1230 53.07L1240 66.73L1250 125.87L1260 148.47L1270 81.72L1280 70.07L1290 83.29L1300 74.84L1310 87.58L1320 79.21L1330 145.6L1340 123.38L1350 123.68L1360 94.7L1370 125.79L1380 185.02L1390 208.54L1400 208.42L1410 219.83L1420 260.1L1430 258.01L1440 293.06L1440 560L0 560z" fill="url(#SvgjsLinearGradient1001)"/>
  </g>
  <defs>
    <mask id="SvgjsMask1000">
      <rect width="1440" height="560" fill="#ffffff"/>
    </mask>
    <linearGradient x1="50%" y1="0%" x2="50%" y2="100%" id="SvgjsLinearGradient1001">
      <stop stop-opacity="0.45" stop-color="#224b75" offset="0"/>
      <stop stop-opacity="0" stop-color="#508dcc" offset="0.8"/>
    </linearGradient>
  </defs>
</svg>

